<svg width="30" height="30" viewBox="0 0 30 30" fill="none" xmlns="http://www.w3.org/2000/svg">
    <g opacity=".9" fill="#fff">
        <path fill-opacity=".01" d="M0 0h1v1H0zM29 29h1v1h-1z"/>
        <path d="M7.4 19.342v-2.763H4.637v2.763H7.4zm-2.763 2.763c-.777 0-1.432-.266-1.965-.799-.532-.532-.798-1.187-.798-1.964v-8.29c0-.762.266-1.41.798-1.942.533-.547 1.188-.82 1.965-.82h4.145c.374 0 .698.136.971.41.274.273.41.597.41.97a1.365 1.365 0 0 1-1.382 1.382H4.638v2.764H7.4c.763 0 1.41.273 1.943.82.547.532.82 1.18.82 1.943v2.763c0 .777-.273 1.432-.82 1.964a2.644 2.644 0 0 1-1.943.8H4.637zM17.126 19.342v-8.29h-2.763v8.29h2.763zm-2.763 2.763c-.777 0-1.432-.266-1.964-.799-.533-.532-.799-1.187-.799-1.964v-8.29c0-.762.266-1.41.799-1.942.532-.547 1.187-.82 1.964-.82h2.763c.763 0 1.41.273 1.943.82.547.532.82 1.18.82 1.943v8.289c0 .777-.273 1.432-.82 1.964a2.644 2.644 0 0 1-1.943.8h-2.763zM22.239 21.873a.669.669 0 0 1-.478-.187.669.669 0 0 1-.186-.477V16.56c0-.367.128-.678.383-.934.256-.263.571-.395.945-.395h3.984c.366 0 .678.132.934.395.262.256.394.567.394.934v4.648a.656.656 0 0 1-.664.664.67.67 0 0 1-.477-.187.669.669 0 0 1-.187-.477V16.56h-1.328v4.648a.656.656 0 0 1-.664.664.669.669 0 0 1-.477-.187.669.669 0 0 1-.187-.477V16.56h-1.328v4.648a.656.656 0 0 1-.664.664z"/>
        <path fill-rule="evenodd" clip-rule="evenodd" d="M22.903 15.465c-.313 0-.567.107-.778.324l-.002.002a1.04 1.04 0 0 0-.316.77v4.648c0 .127.04.227.119.313.086.079.186.118.313.118a.423.423 0 0 0 .431-.431v-4.88h1.793v4.88c0 .127.04.227.119.313.086.079.186.118.313.118a.424.424 0 0 0 .431-.431v-4.88h1.793v4.88c0 .127.04.227.12.313.085.079.185.118.312.118a.424.424 0 0 0 .432-.431V16.56c0-.304-.107-.556-.325-.768l-.004-.004a1.022 1.022 0 0 0-.767-.324h-3.984zm-1.11-.002c.3-.307.675-.463 1.11-.463h3.984c.428 0 .799.156 1.098.462.306.3.462.67.462 1.099v4.648c0 .248-.09.466-.265.641l-.004.005a.888.888 0 0 1-.627.25.901.901 0 0 1-.637-.25l-.005-.005-.004-.004a.901.901 0 0 1-.25-.637v-4.416h-.864v4.416c0 .248-.09.466-.265.641l-.005.005a.888.888 0 0 1-.626.25.901.901 0 0 1-.637-.25l-.005-.005-.004-.004a.901.901 0 0 1-.25-.637v-4.416h-.864v4.416c0 .248-.09.466-.265.641l-.005.005a.888.888 0 0 1-.626.25.901.901 0 0 1-.638-.25l-.004-.005-.004-.004a.9.9 0 0 1-.25-.637V16.56c0-.427.15-.798.45-1.098z"/>
    </g>
</svg>
