<svg width="14" height="16" viewBox="0 0 14 16" fill="none" xmlns="http://www.w3.org/2000/svg">
    <g opacity=".9">
        <path d="M1 0H0v1h1V0zM14 15h-1v1h1v-1z" fill="#fff" fill-opacity=".01"/>
        <path d="M10.333 1.333c-.366 0-.666.3-.666.667v.667H4.333V2c0-.367-.3-.667-.666-.667C3.3 1.333 3 1.633 3 2v.667h-.667c-.74 0-1.326.6-1.326 1.333L1 13.333c0 .734.593 1.334 1.333 1.334h9.334c.733 0 1.333-.6 1.333-1.334V4c0-.733-.6-1.333-1.333-1.333H11V2c0-.367-.3-.667-.667-.667zm1.334 12H2.333V6.667h9.334v6.666zM6.333 8.667C6.333 8.3 6.633 8 7 8c.367 0 .667.3.667.667 0 .366-.3.666-.667.666a.669.669 0 0 1-.667-.666zm-2.666 0c0-.367.3-.667.666-.667C4.7 8 5 8.3 5 8.667c0 .366-.3.666-.667.666a.669.669 0 0 1-.666-.666zm5.333 0C9 8.3 9.3 8 9.667 8c.366 0 .666.3.666.667 0 .366-.3.666-.666.666A.669.669 0 0 1 9 8.667zm-2.667 2.666c0-.366.3-.666.667-.666.367 0 .667.3.667.666 0 .367-.3.667-.667.667a.669.669 0 0 1-.667-.667zm-2.666 0c0-.366.3-.666.666-.666.367 0 .667.3.667.666 0 .367-.3.667-.667.667a.669.669 0 0 1-.666-.667zm5.333 0c0-.366.3-.666.667-.666.366 0 .666.3.666.666 0 .367-.3.667-.666.667A.669.669 0 0 1 9 11.333z" fill="#A689D3"/>
    </g>
</svg>
