<svg width="32" height="32" viewBox="0 0 32 32" fill="none" xmlns="http://www.w3.org/2000/svg">
    <path d="M0 0h1v1H0V0zM31 31h1v1h-1v-1z" fill="#fff" fill-opacity=".01"/>
    <path d="M16 29.333H6.667c-1.48 0-2.667-1.2-2.667-2.666L4.013 8a2.655 2.655 0 0 1 2.654-2.667H8V4c0-.733.6-1.333 1.333-1.333.734 0 1.334.6 1.334 1.333v1.333h10.666V4c0-.733.6-1.333 1.334-1.333C23.4 2.667 24 3.267 24 4v1.333h1.333C26.8 5.333 28 6.533 28 8v8h-2.667v-2.667H6.667v13.334H16v2.666z" fill="#fff"/>
    <rect x="17.333" y="22.667" width="10.667" height="2.667" rx="1.333" fill="#fff"/>
    <rect x="21.333" y="29.333" width="10.667" height="2.667" rx="1.333" transform="rotate(-90 21.333 29.333)" fill="#fff"/>
</svg>
