<svg width="16" height="16" viewBox="0 0 16 16" fill="none" xmlns="http://www.w3.org/2000/svg">
    <g opacity=".9" fill="#fff">
        <path d="M0 0h1v1H0V0z" fill-opacity=".01"/>
        <path d="M0 0h1v1H0V0zM15 15h1v1h-1v-1z" fill-opacity=".01"/>
        <path d="M15 15h1v1h-1v-1z" fill-opacity=".01"/>
        <path d="M2 11.64v2.027a.33.33 0 0 0 .333.333H4.36a.313.313 0 0 0 .233-.1l7.28-7.273-2.5-2.5L2.1 11.4a.327.327 0 0 0-.1.24zm11.807-6.947c.26-.26.26-.68 0-.94l-1.56-1.56a.664.664 0 0 0-.94 0l-1.22 1.22 2.5 2.5 1.22-1.22z"/>
    </g>
</svg>
