<svg width="48" height="48" viewBox="0 0 48 48" fill="none" xmlns="http://www.w3.org/2000/svg">
    <rect width="48" height="48" rx="24" fill="#fff"/>
    <path d="M35.745 24.27c0-.79-.07-1.54-.19-2.27h-11.3v4.51h6.47c-.29 1.48-1.14 2.73-2.4 3.58v3h3.86c2.26-2.09 3.56-5.17 3.56-8.82z" fill="#4285F4"/>
    <path d="M24.255 36c3.24 0 5.95-1.08 7.93-2.91l-3.86-3c-1.08.72-2.45 1.16-4.07 1.16-3.13 0-5.78-2.11-6.73-4.96h-3.98v3.09c1.97 3.92 6.02 6.62 10.71 6.62z" fill="#34A853"/>
    <path d="M17.525 26.29c-.25-.72-.38-1.49-.38-2.29s.14-1.57.38-2.29v-3.09h-3.98a11.86 11.86 0 0 0 0 10.76l3.98-3.09z" fill="#FBBC05"/>
    <path d="M24.255 16.75c1.77 0 3.35.61 4.6 1.8l3.42-3.42c-2.07-1.94-4.78-3.13-8.02-3.13-4.69 0-8.74 2.7-10.71 6.62l3.98 3.09c.95-2.85 3.6-4.96 6.73-4.96z" fill="#EA4335"/>
</svg>
