<svg width="182" height="40" viewBox="0 0 182 40" fill="none" xmlns="http://www.w3.org/2000/svg">
    <path d="M18.067 22.72c-1.8-.2-3.76-.24-5.72-.04-.56-1.12-1.36-2.2-2.16-3.2-1.52-2-3.04-4.24-3.48-6.76-.48-2.56.96-4.48 3.04-5.84 1-.64 2.08-1.2 3.24-1.52.6-.2 2.28-.6 2.76 0 1.04 1.36-5.08 4.36-5.8 4.72-.72.36-.08 1.44.68 1.08 2-.92 4.36-2.04 5.88-3.72 1.2-1.28 1.2-3.04-.44-3.96-1.52-.84-3.64-.48-5.24.08-2.32.8-4.64 2.2-6.04 4.28-3.08 4.56.2 10.2 3.04 13.88.4.48.84 1 1.2 1.56-1.6.4-3.12 1.04-4.44 1.88-1.44 1-3.32 3-2.28 4.88 1.08 2 3.96 1.64 5.76 1.08 2.16-.72 4.2-2.4 4.76-4.72.28-1 .2-1.88-.08-2.76 1.76-.16 3.56-.12 5.36.12.64.04.64-.96-.04-1.04zm-9.12 4.48c-.6.76-1.48 1.32-2.36 1.64-.6.24-2.6.88-2.72-.2-.12-1.16 1.52-2.48 2.32-3.04 1.04-.72 2.16-1.08 3.36-1.4.04.12.08.24.12.4.24.88-.16 1.88-.72 2.6z" fill="#fff"/>
    <path d="M25.063 19.8c-.36.92-.6 1.92-.96 2.84-.4.84-1 2-1.6 2.68-.48.52-1.56 1.4-2.08.28-.4-.84-.28-2-.12-2.88.2-1.24.64-2.44 1.08-3.6.32-.8-.32-1.84-1.12-2-.96-.24-1.68.28-2 1.12-.12.32-.24.6-.36.92-.64 1.84-1.24 3.92-.96 5.92.2 1.16.8 2.28 1.92 2.76 1.56.72 3.36 0 4.44-1.2 1.12-1.24 1.76-2.8 2.24-4.4.2-.72.44-1.56.4-2.32-.04-.56-.68-.6-.88-.12zm-4.84-3.32c1.68.4 2.92-1.72 1.8-3-.44-.52-1.24-.8-1.92-.56-1 .32-1.4 1.4-1.16 2.28.12.6.56 1.12 1.28 1.28z" fill="#fff"/>
    <path d="M44.409 19.44c-.08-.4-.4-.6-.72-.36-.44.32-.84 1.72-1.08 2.36a27.88 27.88 0 0 1-1.48 3.12c-.36.64-1.48 2.68-2.48 2.04-.68-.4.16-2.36.32-2.92.4-1.36.84-2.76 1.08-4.16.16-.92.24-1.88 0-2.76-.28-1.08-1.24-1.72-2.36-1.52-1.44.24-2.48 1.64-3.28 2.8-.04 0-.04.04-.08.08.04-.8-.04-1.6-.44-2.28-.8-1.24-2.28-1.16-3.36-.36-1.04.8-1.76 1.92-2.36 3.12-.04.08-.08.16-.12.28.12-.56.28-1.08.44-1.6.24-.76-.28-1.72-1.08-1.92-.84-.2-1.64.28-1.92 1.08-.36 1.16-.64 2.32-.84 3.48-.2 1.28-.36 2.56-.28 3.84.04.76.64 1.52 1.52 1.48.84-.04 1.28-.68 1.56-1.4.72-1.76 1.48-3.52 2.44-5.16.24-.48.52-.92.92-1.28.2-.16.72-.52.8-.04.04.28-.12.6-.2.88-.28.92-.52 1.84-.84 2.76-.2.76-.52 1.52-.08 2.24.2.32.56.6.92.68 1.08.24 1.76-.76 2.2-1.6.48-.96.96-1.88 1.56-2.76.56-.84 1.2-1.8 2.08-2.36.32-.2.48.08.36.4-.2.72-.52 1.4-.76 2.12-.24.76-.52 1.52-.76 2.28-.56 1.88-1.4 5.28.76 6.48 1.2.68 2.84.16 3.72-.84.72-.84 1.28-1.76 1.76-2.76.48-1.08.96-2.16 1.4-3.28.12-.24.2-.48.32-.72.16-.44.44-1.04.36-1.44z" fill="#fff"/>
    <path d="M56.649 19.52c-.92-.12-1.84-.16-2.8-.12.16-.56.2-1.12.08-1.72-.16-1.12-1.04-2.12-2.16-2.4-1.28-.28-2.32.32-3.2 1.16-.56.52-1.12 1.04-1.64 1.68-.16.16-.28.36-.4.56.16-.88.4-1.72.92-2.44.36-.44.12-1.16-.28-1.48-.52-.4-1.08-.28-1.56.08-1.92 1.56-2.36 4.76-2.88 7.08-.4 1.76-.76 3.56-1.12 5.4-.36 1.8-.96 3.92-.48 5.76.32 1.04 1.88 1.32 2.44.32.76-1.52.84-3.4 1.12-5.08.2-.92.36-1.84.56-2.76 0 .16.16.44.24.56.12.2.28.36.48.48.64.48 1.56.6 2.36.44.72-.2 1.36-.68 1.92-1.24.4-.4.76-.84 1.12-1.32.84-1.16 1.52-2.4 2.04-3.72.04 0 .04-.04.04-.08 1.08-.04 2.2 0 3.2.12.84.12.84-1.2 0-1.28zm-7.8 2.96c-.28.4-.56.84-.88 1.24-.24.36-.56.84-.96 1.04-.04-.08.04-.24.08-.32.44-.8 1.12-1.56 1.84-2.16l.04-.04-.12.24zm1.6-2.64c-.04.08-.08.12-.12.2-1.08.4-2.04 1.04-2.96 1.8-.6.56-1.32 1.24-1.72 2 0-.12 0-.2.04-.28.48-1.32 1.08-2.56 1.92-3.68.36-.52.76-1.04 1.28-1.44.44-.4 1.16-.8 1.8-.72.28.08.4.24.4.48 0 .52-.48 1.36-.64 1.64z" fill="#fff"/>
    <path d="M64.331 19.72c-.52 1.2-1.2 2.32-2 3.36-.6.8-1.24 1.64-2.04 2.24-.28.24-.8.6-1.16.36-.6-.44.04-3.2.2-4l1.2-5.88c1-1.52 1.92-3.12 2.64-4.84.56-1.4 1.52-3.24.84-4.76-.64-1.28-2.04-1.12-2.92-.16-.96 1.08-1.52 2.6-2 3.96-1.28 3.48-2.04 7.04-2.8 10.64-.44 2.12-1.08 5.84 1.32 7.12 1.96 1.04 3.52-.68 4.76-2.08 1.36-1.64 2.4-3.48 3.12-5.48.24-.64-.84-1.12-1.16-.48zm-2.48-9.76c.12-.56.24-1.08.36-1.6.08-.32.12-.6.2-.92.04-.08.12-.28.24-.36.2-.08.16.24.16.36-.04.4-.12.76-.2 1.12-.24.8-.52 1.6-.8 2.4-.16.4-.32.76-.48 1.12.16-.72.36-1.4.52-2.12z" fill="#fff"/>
    <path d="M78.864 19.56c-.88.16-1.72.68-2.52 1.04-.64.32-1.32.68-1.92 1 .08-.52.24-1.08.32-1.64.2-1.04.48-2.16.4-3.2-.08-1.36-1.72-1.96-2.64-1-.56.64-.92 1.52-1.32 2.24-.48.96-.88 1.88-1.44 2.8-.48.68-.96 1.44-1.6 2-.28.2-.72.44-.96.08-.12-.16-.12-.32-.16-.48-.16-1.8.44-3.6 1.12-5.24.28-.72-.28-1.56-.92-1.84s-1.6-.04-1.92.64c-.48 1.04-.96 2.16-1.24 3.28-.32 1.44-.52 3 .16 4.4.68 1.36 2.28 2 3.72 1.48 1.36-.52 2.28-1.84 2.96-3.08.08-.08.12-.2.16-.32-.12.68-.28 1.36-.4 2.04-.04.04-.04.12-.04.2-1.84 1.32-3.44 2.88-4.52 4.84-.52.88-1.08 2-.8 3.04.32 1.12 1.64 1.76 2.72 1.48 2.56-.6 3.92-4.04 4.76-6.2.48-1.28.92-2.6 1.24-3.92.96-.52 1.96-1.04 2.92-1.52.76-.4 1.64-.68 2.32-1.16.52-.36.2-1.08-.4-.96zm-8.88 6.96c-.08.24-.12.48-.2.72-.16.48-.32.96-.52 1.44-.28.6-.56 1.2-1 1.76-.24.32-1 1.28-1.44.76-.4-.52.32-1.8.6-2.24.72-1.2 1.68-2.24 2.76-3.12-.12.08-.16.52-.2.68zM101.075 22.72c-1.8-.2-3.76-.24-5.72-.04-.56-1.12-1.36-2.2-2.16-3.2-1.52-2-3.04-4.24-3.48-6.76-.48-2.56.96-4.48 3.04-5.84 1-.64 2.08-1.2 3.24-1.52.6-.2 2.28-.6 2.76 0 1.04 1.36-5.08 4.36-5.8 4.72-.72.36-.08 1.44.68 1.08 2-.92 4.36-2.04 5.88-3.72 1.2-1.28 1.2-3.04-.44-3.96-1.52-.84-3.64-.48-5.24.08-2.32.8-4.64 2.2-6.04 4.28-3.08 4.56.2 10.2 3.04 13.88.4.48.84 1 1.2 1.56-1.6.4-3.12 1.04-4.44 1.88-1.44 1-3.32 3-2.28 4.88 1.08 2 3.96 1.64 5.76 1.08 2.16-.72 4.2-2.4 4.76-4.72.28-1 .2-1.88-.08-2.76 1.76-.16 3.56-.12 5.36.12.64.04.64-.96-.04-1.04zm-9.12 4.48c-.6.76-1.48 1.32-2.36 1.64-.6.24-2.6.88-2.72-.2-.12-1.16 1.52-2.48 2.32-3.04 1.04-.72 2.16-1.08 3.36-1.4.04.12.08.24.12.4.24.88-.16 1.88-.72 2.6z" fill="#fff"/>
    <path d="M111.551 19.88v.04c-.12-.28-.48-.4-.64-.12-.24.16-.4.48-.56.76-.32.56-.64 1.12-1 1.72-.84 1.4-1.84 2.84-3.28 3.68-.84.48-2 .8-2.72-.08-.48-.6-.6-1.52-.52-2.28.08-1 .36-2 .68-2.96.4-1.08 1.04-2.08 1.84-2.96.24-.32.52-.6.88-.8.16-.12.12.08.12.2 0 .28-.12.52-.32.72-.36.44.2 1 .64.64 1.04-.88 1.4-2.32.16-3.2-1.16-.88-2.8.12-3.72.92-2.08 1.92-3.32 4.64-3.56 7.44-.12 1.4.16 3.08 1.16 4.12 1 1.08 2.64 1.28 4 .92 2.12-.6 3.56-2.44 4.76-4.16.6-.88 1.16-1.84 1.64-2.8.24-.48.68-1.28.44-1.8z" fill="#fff"/>
    <path d="M123.036 19.8c-.64 1.2-1.12 2.48-1.72 3.68-.36.76-.8 1.48-1.24 2.24-.4.68-1.24 1.2-1.64.76-.24-.28-.04-1 .08-1.32.12-.48.32-.92.52-1.4.4-1 .8-2 1.04-3.08.28-1.2.6-2.56.16-3.76-.36-1-1.08-1.6-2.12-1.76-1.12-.16-2.04.28-2.76 1.12-.64.68-1.16 1.48-1.6 2.28.28-1.52.6-3.04.92-4.56.28-1.24.4-2.44.6-3.68.2-1.12.4-2.24 1.08-3.16.36-.48.12-1.2-.32-1.52-.48-.36-1.04-.28-1.52.12-1.92 1.56-2.4 4.76-2.88 7.04-.4 1.8-.8 3.6-1.16 5.4-.32 1.84-.72 4.04-.24 5.84.2.68.72 1 1.36.88 1.2-.24 1.48-1.88 1.88-2.8.56-1.28 1.28-2.52 2.08-3.64.36-.52 1.32-2.2 2.12-1.72.56.28-.04 1.68-.2 2.16-.44 1.44-1.04 2.84-1.56 4.24-.36 1-.76 2.16-.64 3.24.2 1.68 1.76 2.8 3.4 2.44 1.6-.28 2.56-1.84 3.2-3.16.84-1.72 1.64-3.56 2.16-5.36.24-.8-.64-1.24-1-.52z" fill="#fff"/>
    <path d="M133.335 19.68c-1 1.88-1.84 3.88-3.48 5.36-.68.64-1.6 1.2-2.6.96-.88-.24-1.44-1.16-1.68-1.96-.12-.48-.16-.92-.16-1.4 0-.12.08-1.32.12-1.28 1.04.4 2.24.44 3.28-.12 1.8-.96 2.76-4.08 1.04-5.56-1.04-.92-2.68-.8-3.84-.12-2.44 1.48-3.92 4.72-3.72 7.56.12 1.64.8 3.52 2.32 4.36 1.4.76 2.88.64 4.28 0 2.84-1.28 4.52-4.52 5.68-7.28.28-.68-.88-1.16-1.24-.52zm-7.16-.04c.24-.48.52-.96.88-1.36.32-.4.72-.84 1.24-.92.56-.12 1 .24 1 .8.04.56-.24 1.16-.6 1.56-.76.8-1.88.88-2.84.6 0-.04.24-.52.32-.68z" fill="#fff"/>
    <path d="M147.286 19.88c-.64 1.68-1.12 3.52-2.12 5.04-.4.68-1.16 1.72-2.04 1.76-1.04.04-.84-1.6-.76-2.28.16-1.16.44-2.36.64-3.52.24-1.24.56-2.44.84-3.64.4-1.92.88-3.8 1.32-5.68.24-1.04.4-2.08.72-3.08.08-.32.2-.64.32-.92.08-.12.2-.24.24-.36.48-.28.36-1.16-.2-1.32-1.48-.48-2.48 1.76-2.96 2.8-.96 1.96-1.64 4.08-2.2 6.24-.12-.08-.2-.12-.28-.16-1.84-.68-3.56.16-4.96 1.32-1.32 1.08-2.4 2.56-2.92 4.16-.64 1.92-.2 4.96 2.2 5.32 1.96.28 3.4-1.76 4.32-3.2.04-.08.08-.12.12-.2-.28 2.36.12 6.6 3.28 6.36 1.72-.16 3.04-1.72 3.8-3.12.96-1.64 1.44-3.48 1.64-5.4.08-.6-.84-.64-1-.12zm-6.88-2.32c-.12.28-.28.56-.44.88-.36.64-.72 1.32-1.12 1.96-.36.6-.76 1.16-1.24 1.68-.24.24-1.64 1.8-1.92 1.08-.04-.08-.04-.16-.04-.24 0-1.28.76-2.64 1.52-3.64.64-.76 1.48-1.52 2.48-1.84.16-.04.32-.12.48-.16.32-.16.48-.08.28.28z" fill="#fff"/>
    <path d="M162.672 19.88c-.16-.4-.56-.48-.88-.24-.44.32-.52.88-.64 1.36-.2.56-.4 1.12-.64 1.68-.44 1.16-1 2.28-1.8 3.24-.32.4-.76.88-1.28 1-.48.12-.92-.28-1.04-.72-.2-.56-.12-1.2-.04-1.8.32-2.52.96-5 1.72-7.4.28-.8-.32-1.72-1.12-1.96-.84-.24-1.48.32-1.84 1.04-.56 1.08-1.04 2.2-1.6 3.24-.28.56-2.4 4.72-3.36 3.56-.12-.12-.16-.32-.16-.48-.12-.84.04-1.68.2-2.52.24-.92.56-1.84.92-2.72.28-.72-.28-1.56-.92-1.84s-1.6-.04-1.92.64c-.48 1.04-.96 2.16-1.24 3.28-.32 1.44-.52 3 .16 4.4.68 1.36 2.28 2 3.72 1.48 1-.36 1.76-1.2 2.4-2.12-.08.28-.12.52-.16.76-.28 2.04-.08 4.52 2.12 5.48 3.28 1.44 5.28-2.68 6.24-5.08.32-.72.56-1.52.8-2.28.2-.56.6-1.4.36-2z" fill="#fff"/>
    <path d="M169.37 19.72c-.52 1.2-1.2 2.32-2 3.36-.6.8-1.24 1.64-2.04 2.24-.28.24-.8.6-1.16.36-.6-.44.04-3.2.2-4l1.2-5.88c1-1.52 1.92-3.12 2.64-4.84.56-1.4 1.52-3.24.84-4.76-.64-1.28-2.04-1.12-2.92-.16-.96 1.08-1.52 2.6-2 3.96-1.28 3.48-2.04 7.04-2.8 10.64-.44 2.12-1.08 5.84 1.32 7.12 1.96 1.04 3.52-.68 4.76-2.08 1.36-1.64 2.4-3.48 3.12-5.48.24-.64-.84-1.12-1.16-.48zm-2.48-9.76c.12-.56.24-1.08.36-1.6.08-.32.12-.6.2-.92.04-.08.12-.28.24-.36.2-.08.16.24.16.36-.04.4-.12.76-.2 1.12-.24.8-.52 1.6-.8 2.4-.16.4-.32.76-.48 1.12.16-.72.36-1.4.52-2.12z" fill="#fff"/>
    <path d="M179.703 19.68c-1 1.88-1.84 3.88-3.48 5.36-.68.64-1.6 1.2-2.6.96-.88-.24-1.44-1.16-1.68-1.96-.12-.48-.16-.92-.16-1.4 0-.12.08-1.32.12-1.28 1.04.4 2.24.44 3.28-.12 1.8-.96 2.76-4.08 1.04-5.56-1.04-.92-2.68-.8-3.84-.12-2.44 1.48-3.92 4.72-3.72 7.56.12 1.64.8 3.52 2.32 4.36 1.4.76 2.88.64 4.28 0 2.84-1.28 4.52-4.52 5.68-7.28.28-.68-.88-1.16-1.24-.52zm-7.16-.04c.24-.48.52-.96.88-1.36.32-.4.72-.84 1.24-.92.56-.12 1 .24 1 .8.04.56-.24 1.16-.6 1.56-.76.8-1.88.88-2.84.6 0-.04.24-.52.32-.68z" fill="#fff"/>
</svg>
