<svg width="28" height="28" viewBox="0 0 28 28" fill="none" xmlns="http://www.w3.org/2000/svg">
    <path d="M0 0h1v1H0V0zM27 27h1v1h-1v-1z" fill="#C4C4C4" fill-opacity=".01"/>
    <path d="M20 18.08c-.76 0-1.44.3-1.96.77l-7.13-4.15c.05-.23.09-.46.09-.7 0-.24-.04-.47-.09-.7l7.05-4.11c.54.5 1.25.81 2.04.81 1.66 0 3-1.34 3-3s-1.34-3-3-3-3 1.34-3 3c0 .24.04.47.09.7l-7.05 4.11C9.5 11.31 8.79 11 8 11c-1.66 0-3 1.34-3 3s1.34 3 3 3c.79 0 1.5-.31 2.04-.81l7.12 4.16c-.05.21-.08.43-.08.65 0 1.61 1.31 2.92 2.92 2.92 1.61 0 2.92-1.31 2.92-2.92 0-1.61-1.31-2.92-2.92-2.92z" fill="#A689D4"/>
</svg>
